<svg xmlns="http://www.w3.org/2000/svg"  viewBox="0 0 64 64" width="64px" height="64px"><linearGradient id="IgnU_pwi1cOyKgnWsfk95a" x1="12.61" x2="12.61" y1="22.917" y2="41.509" gradientUnits="userSpaceOnUse" spreadMethod="reflect"><stop offset="0" stop-color="#1a6dff"/><stop offset="1" stop-color="#c822ff"/></linearGradient><path fill="url(#IgnU_pwi1cOyKgnWsfk95a)" d="M15.4,24.837c0.205,0.281,0.349,0.589,0.431,0.926l0.219-0.076l-0.49-2.922 c-0.097,0.07-0.199,0.122-0.304,0.157s-0.186,0.054-0.245,0.057c-0.059,0.004-0.124,0.005-0.197,0.005h-4.381 c-0.015,0-0.085,0-0.212,0c-0.01,0-0.05-0.002-0.12-0.008c-0.071-0.006-0.125-0.017-0.164-0.034 c-0.097-0.051-0.177-0.11-0.241-0.177l-0.526,2.922l0.219,0.051c0.044-0.191,0.139-0.421,0.285-0.691 c0.121-0.225,0.244-0.396,0.365-0.514c0.244-0.225,0.47-0.383,0.68-0.476c0.209-0.093,0.46-0.139,0.752-0.139v6.007 c0,0.24-0.01,0.42-0.029,0.537c-0.02,0.117-0.08,0.233-0.182,0.344c-0.17,0.185-0.35,0.278-0.54,0.278 c-0.044,0-0.077,0.002-0.102,0.008v0.32h4.004v-0.328c-0.156,0-0.285-0.021-0.387-0.063c-0.104-0.039-0.197-0.122-0.282-0.245 c-0.085-0.123-0.141-0.263-0.167-0.42c-0.028-0.157-0.04-0.333-0.04-0.53c0-0.045,0-0.1,0-0.168l-0.007-5.736 c0.35,0,0.659,0.075,0.924,0.223C14.924,24.291,15.172,24.523,15.4,24.837z"/><linearGradient id="IgnU_pwi1cOyKgnWsfk95b" x1="26.63" x2="26.63" y1="22.917" y2="41.509" gradientUnits="userSpaceOnUse" spreadMethod="reflect"><stop offset="0" stop-color="#1a6dff"/><stop offset="1" stop-color="#c822ff"/></linearGradient><path fill="url(#IgnU_pwi1cOyKgnWsfk95b)" d="M32.394,31.415v-0.328c-0.115-0.022-0.209-0.058-0.281-0.105 c-0.072-0.047-0.129-0.116-0.17-0.206c-0.041-0.089-0.07-0.184-0.086-0.281c-0.017-0.098-0.025-0.217-0.025-0.357l0.008-5.635 l3.354,4.542c0.195,0.263,0.326,0.471,0.394,0.623c0.103,0.219,0.153,0.452,0.153,0.698c0,0.371-0.119,0.6-0.357,0.689 c-0.064,0.023-0.126,0.034-0.19,0.034v0.328h2.206v-0.328c-0.102-0.011-0.196-0.043-0.281-0.097 c-0.085-0.053-0.151-0.124-0.197-0.215c-0.046-0.089-0.076-0.194-0.091-0.315s-0.022-0.226-0.022-0.315v-5.603 c0-0.157,0.011-0.33,0.032-0.517c0.022-0.188,0.076-0.347,0.165-0.476c0.072-0.106,0.154-0.174,0.241-0.202 c0.059-0.011,0.116-0.023,0.175-0.034v-0.328h-2.206v0.328c0.119,0.017,0.217,0.046,0.299,0.088c0.081,0.042,0.151,0.11,0.21,0.202 c0.059,0.093,0.096,0.179,0.111,0.257c0.015,0.078,0.022,0.193,0.022,0.345c0,0.023,0,0.057,0,0.101v1.903l-1.469-2.123 c-0.049-0.072-0.082-0.132-0.102-0.177c-0.044-0.095-0.066-0.182-0.066-0.261c0-0.056,0.017-0.111,0.051-0.164 c0.034-0.053,0.07-0.095,0.106-0.127c0.036-0.031,0.079-0.046,0.127-0.046v-0.328h-4.179v0.328c0.18,0.028,0.321,0.106,0.424,0.235 c0.049,0.062,0.083,0.174,0.103,0.337c0.02,0.163,0.029,0.333,0.029,0.513c0,0.072,0,0.144,0,0.21v5.157 c0,0.286-0.022,0.542-0.066,0.769c-0.042,0.217-0.111,0.363-0.206,0.439c-0.02-0.013-0.04-0.027-0.06-0.043 c-0.059-0.047-0.119-0.13-0.182-0.249c-0.02-0.039-0.046-0.093-0.08-0.159l-1.9-6.571c-0.029-0.101-0.046-0.157-0.051-0.168 c-0.015-0.056-0.022-0.106-0.022-0.151s0.01-0.089,0.029-0.134c0.044-0.095,0.124-0.142,0.241-0.142v-0.371h-3.236v0.32 c0.034,0.011,0.067,0.025,0.099,0.042s0.064,0.052,0.095,0.105c0.031,0.053,0.048,0.12,0.048,0.198c0,0.057-0.01,0.118-0.029,0.185 c-0.02,0.068-0.041,0.135-0.066,0.202l-2.024,5.987c-0.059,0.185-0.12,0.33-0.182,0.433c-0.015,0.024-0.031,0.05-0.05,0.074 c-0.052-0.122-0.109-0.263-0.167-0.431c-0.262-0.751-0.45-1.236-0.562-1.455c-0.21-0.403-0.41-0.767-0.602-1.089 c-0.192-0.322-0.417-0.671-0.676-1.048c0.039,0,0.18-0.081,0.424-0.244c0.321-0.219,0.582-0.458,0.781-0.715 c0.277-0.365,0.416-0.755,0.416-1.17c0-0.045-0.005-0.117-0.015-0.219c-0.044-0.382-0.215-0.673-0.515-0.875 c-0.3-0.202-0.734-0.303-1.304-0.303h-5.114v0.328c0.102,0,0.19,0.021,0.262,0.063c0.072,0.042,0.137,0.12,0.194,0.232 c0.056,0.112,0.094,0.316,0.114,0.615c0.005,0.095,0.007,0.229,0.007,0.403l-0.015,5.51c0,0.191-0.015,0.345-0.044,0.462 c-0.029,0.118-0.093,0.222-0.19,0.312c-0.073,0.068-0.135,0.113-0.186,0.139c-0.051,0.025-0.119,0.037-0.201,0.037v0.328h3.485 v-0.328c-0.136-0.034-0.221-0.059-0.256-0.076c-0.074-0.039-0.149-0.115-0.226-0.227c-0.059-0.085-0.099-0.184-0.12-0.299 c-0.022-0.115-0.032-0.262-0.032-0.442v-2.375l0.387-0.21c0.146,0.231,0.294,0.464,0.442,0.699c0.149,0.235,0.271,0.452,0.369,0.648 c0.331,0.685,0.534,1.12,0.606,1.305c0.108,0.275,0.161,0.488,0.161,0.64c0,0.112-0.029,0.188-0.087,0.227 c-0.107,0.072-0.226,0.118-0.357,0.135v0.303h2.351h1.331h1.094v-0.312c-0.092-0.017-0.175-0.05-0.249-0.097 c-0.073-0.047-0.139-0.122-0.198-0.223c-0.025-0.045-0.036-0.127-0.036-0.244c0-0.241,0.031-0.462,0.095-0.665l0.515-1.711 c0.166,0,0.376,0.027,0.632,0.08s0.45,0.113,0.581,0.181c0.336,0.174,0.641,0.437,0.914,0.79c0.254,0.325,0.397,0.619,0.431,0.883 c0.01,0.056,0.015,0.134,0.015,0.235c0,0.303-0.097,0.522-0.292,0.656c-0.064,0.039-0.159,0.072-0.285,0.101v0.327h3.152h0.631 L32.394,31.415z M19.95,25.974c-0.282,0.281-0.609,0.494-0.979,0.64l-0.256,0.093v-2.114c0-0.14,0.019-0.262,0.055-0.366 c0.036-0.104,0.101-0.179,0.194-0.223c0.165-0.078,0.344-0.118,0.534-0.118c0.277,0,0.506,0.072,0.686,0.219 c0.209,0.168,0.314,0.398,0.314,0.691C20.499,25.216,20.317,25.61,19.95,25.974z M26.649,27.45 c-0.199-0.118-0.384-0.205-0.554-0.261c-0.17-0.056-0.299-0.087-0.386-0.093s-0.16-0.008-0.219-0.008l0.697-2.366l0.817,2.982 C26.914,27.624,26.795,27.539,26.649,27.45z"/><linearGradient id="IgnU_pwi1cOyKgnWsfk95c" x1="48.631" x2="48.631" y1="22.917" y2="41.509" gradientUnits="userSpaceOnUse" spreadMethod="reflect"><stop offset="0" stop-color="#1a6dff"/><stop offset="1" stop-color="#c822ff"/></linearGradient><path fill="url(#IgnU_pwi1cOyKgnWsfk95c)" d="M50.718,31.432c0.103,0.011,0.195,0.031,0.278,0.059l0.249,0.085l0.95-3.225l-0.249-0.144 c-0.083,0.371-0.277,0.755-0.585,1.154c-0.272,0.36-0.557,0.637-0.855,0.833c-0.2,0.129-0.42,0.233-0.661,0.312 s-0.476,0.118-0.705,0.118c-0.21,0-0.395-0.035-0.555-0.105c-0.16-0.07-0.285-0.175-0.372-0.316 c-0.087-0.14-0.144-0.275-0.167-0.404c-0.024-0.129-0.036-0.286-0.036-0.472c0-0.034,0-0.078,0-0.135c0-0.056,0-0.123,0-0.202 v-2.409h0.935c0.107,0,0.239,0.037,0.394,0.113c0.156,0.076,0.295,0.175,0.416,0.299c0.121,0.123,0.231,0.292,0.329,0.506 c0.077,0.174,0.126,0.318,0.146,0.43l0.277-0.052l-0.49-3.208l-0.219,0.076c0,0.028,0,0.07,0,0.127c0,0.241-0.083,0.447-0.248,0.615 c-0.083,0.078-0.169,0.134-0.259,0.164c-0.09,0.031-0.184,0.046-0.28,0.046h-1.026v-0.918c0-0.174,0.02-0.326,0.062-0.455 c0.041-0.129,0.114-0.239,0.215-0.328c0.156-0.135,0.397-0.202,0.724-0.202c0.292,0,0.589,0.056,0.891,0.168 s0.562,0.278,0.781,0.497c0.38,0.388,0.626,0.858,0.737,1.415l0.241-0.21l-0.534-2.847c-0.083,0.037-0.149,0.062-0.197,0.072 c-0.01,0-0.075,0.011-0.198,0.031c-0.234,0.043-0.441,0.064-0.621,0.064c-0.064,0-0.107,0-0.131,0h-4.821v0.328 c0.107,0,0.19,0.01,0.249,0.029c0.059,0.019,0.118,0.068,0.175,0.144c0.059,0.076,0.094,0.152,0.106,0.227 c0.012,0.076,0.019,0.187,0.019,0.333c0,0.017,0,0.047,0,0.093v5.979c0,0.174-0.011,0.316-0.033,0.425 c-0.021,0.11-0.072,0.217-0.15,0.325c-0.059,0.072-0.109,0.122-0.15,0.147c-0.041,0.025-0.135,0.052-0.281,0.08v0.32h5.326 C50.508,31.415,50.615,31.42,50.718,31.432z"/><linearGradient id="IgnU_pwi1cOyKgnWsfk95d" x1="41.094" x2="41.094" y1="22.917" y2="41.509" gradientUnits="userSpaceOnUse" spreadMethod="reflect"><stop offset="0" stop-color="#1a6dff"/><stop offset="1" stop-color="#c822ff"/></linearGradient><path fill="url(#IgnU_pwi1cOyKgnWsfk95d)" d="M44.393,27.648c0-0.174,0.011-0.316,0.033-0.429c0.023-0.112,0.071-0.216,0.15-0.312 c0.146-0.191,0.319-0.286,0.519-0.286v-0.286h-3.5v0.312c0.024,0,0.064,0,0.116,0c0.141,0,0.268,0.062,0.38,0.185 c0.059,0.068,0.099,0.138,0.121,0.21c0.022,0.072,0.033,0.204,0.033,0.395v2.008c0,0.331-0.064,0.594-0.19,0.79 c-0.151,0.229-0.385,0.344-0.701,0.344c-0.711,0-1.286-0.409-1.724-1.229c-0.375-0.697-0.562-1.468-0.562-2.316 c0-0.068,0.001-0.123,0.004-0.168c0.003-0.045,0.006-0.093,0.011-0.144c0.067-0.825,0.256-1.498,0.562-2.021 c0.37-0.629,0.874-0.943,1.512-0.943c0.409,0,0.874,0.138,1.395,0.414c0.209,0.113,0.419,0.313,0.629,0.6 c0.272,0.372,0.45,0.693,0.534,0.965l0.182-0.11l-0.299-2.897c-0.087,0.078-0.172,0.157-0.256,0.235 c-0.107,0.068-0.246,0.101-0.416,0.101c-0.151,0-0.316-0.022-0.496-0.068c-0.35-0.085-0.662-0.145-0.935-0.181 c-0.272-0.036-0.565-0.054-0.876-0.054c-0.575,0-1.102,0.083-1.585,0.249c-0.482,0.165-0.906,0.429-1.271,0.787 c-0.272,0.274-0.494,0.581-0.666,0.92v4.256c0.12,0.272,0.261,0.528,0.425,0.769c0.447,0.657,0.996,1.112,1.644,1.364 c0.521,0.202,1.22,0.303,2.096,0.303h3.652v-0.32c-0.116-0.034-0.206-0.071-0.266-0.113c-0.061-0.042-0.116-0.113-0.164-0.215 c-0.049-0.1-0.079-0.199-0.087-0.295c0-0.106,0-0.212,0-0.32v-2.502H44.393z"/><linearGradient id="IgnU_pwi1cOyKgnWsfk95e" x1="6.153" x2="6.153" y1="22.917" y2="41.509" gradientUnits="userSpaceOnUse" spreadMethod="reflect"><stop offset="0" stop-color="#1a6dff"/><stop offset="1" stop-color="#c822ff"/></linearGradient><path fill="url(#IgnU_pwi1cOyKgnWsfk95e)" d="M2.562,33.338c0.049-0.011,0.111-0.016,0.185-0.016c0.546,0.085,1.081,0.169,1.605,0.254 c0.524,0.085,0.995,0.127,1.415,0.127c0.524,0,1.547-0.112,2.122-0.338c0.701-0.274,1.2-0.662,1.626-1.162 c0.517-0.612,0.792-1.347,0.792-2.207c0-0.652-0.151-1.299-0.525-1.849c-0.159-0.234-0.369-0.429-0.606-0.589 c-0.431-0.291-0.926-0.475-1.421-0.642c-0.565-0.192-1.126-0.392-1.689-0.595c-0.395-0.142-0.801-0.217-1.109-0.522 c-0.451-0.447-0.327-1.175,0.085-1.603c0.192-0.199,0.527-0.354,0.797-0.415c0.98-0.223,1.677,0.217,2.58,1.061 c0.212,0.199,0.437,0.647,0.437,0.647l0.501-2.719c-0.057,0.035-0.297,0.187-0.401,0.264c-0.192,0.144-0.516-0.042-0.709-0.11 c-0.259-0.091-0.522-0.168-0.79-0.231c-0.537-0.124-1.09-0.185-1.644-0.185c-0.434,0-0.907,0.03-1.33,0.126 c-0.31,0.07-0.641,0.221-0.915,0.374c-0.89,0.496-1.316,1.376-1.507,2.316c-0.117,0.575-0.084,1.17,0.16,1.711 c0.347,0.769,0.964,1.424,1.772,1.746l2.757,0.887c0.199,0.064,0.43,0.252,0.551,0.414c0.437,0.584,0.226,1.556-0.314,2.011 c-0.845,0.715-2.366,0.452-3.2-0.155c-0.457-0.332-0.699-0.832-0.894-1.337c-0.011-0.029-0.219-0.583-0.207-0.583 c-0.002,0-0.41,0-0.41,0L2,33.703c0.064-0.057,0.322-0.216,0.389-0.269C2.455,33.38,2.513,33.349,2.562,33.338z"/><linearGradient id="IgnU_pwi1cOyKgnWsfk95f" x1="56.837" x2="56.837" y1="22.917" y2="41.509" gradientUnits="userSpaceOnUse" spreadMethod="reflect"><stop offset="0" stop-color="#1a6dff"/><stop offset="1" stop-color="#c822ff"/></linearGradient><path fill="url(#IgnU_pwi1cOyKgnWsfk95f)" d="M59.439,28.738c-0.246-0.413-0.534-0.861-0.864-1.343c0.05,0,0.23-0.104,0.541-0.313 c0.411-0.28,0.744-0.586,0.999-0.916c0.355-0.467,0.532-0.967,0.532-1.5c0-0.057-0.006-0.151-0.019-0.28 c-0.056-0.489-0.275-0.863-0.659-1.122c-0.382-0.258-0.939-0.389-1.667-0.389h-6.537v0.421c0.131,0,0.243,0.027,0.336,0.081 s0.176,0.153,0.248,0.297c0.071,0.144,0.12,0.406,0.145,0.787c0.006,0.122,0.01,0.295,0.01,0.518l-0.019,7.064 c0,0.244-0.019,0.442-0.056,0.593c-0.037,0.151-0.119,0.284-0.242,0.4c-0.094,0.087-0.173,0.146-0.237,0.177 c-0.065,0.033-0.151,0.048-0.256,0.048v0.421h4.455v-0.423c-0.174-0.043-0.284-0.076-0.326-0.097 c-0.094-0.051-0.19-0.147-0.29-0.291c-0.075-0.109-0.126-0.235-0.154-0.384c-0.027-0.147-0.042-0.337-0.042-0.566v-3.045 l0.495-0.269c0.186,0.295,0.375,0.594,0.565,0.896s0.347,0.58,0.471,0.831c0.424,0.878,0.681,1.436,0.775,1.673 c0.136,0.353,0.205,0.627,0.205,0.821c0,0.144-0.037,0.241-0.112,0.292c-0.138,0.094-0.29,0.151-0.458,0.173v0.389h4.706v-0.367 c-0.175-0.036-0.321-0.082-0.439-0.14c-0.161-0.078-0.367-0.471-0.616-1.176c-0.336-0.963-0.576-1.585-0.719-1.865 C59.941,29.617,59.684,29.152,59.439,28.738z M56.94,26.71c-0.361,0.36-0.779,0.634-1.251,0.821l-0.326,0.118V24.94 c0-0.18,0.024-0.337,0.07-0.47c0.046-0.133,0.129-0.228,0.248-0.286c0.211-0.1,0.439-0.151,0.681-0.151 c0.355,0,0.647,0.094,0.877,0.28c0.267,0.216,0.401,0.511,0.401,0.885C57.64,25.738,57.408,26.241,56.94,26.71z"/><linearGradient id="IgnU_pwi1cOyKgnWsfk95g" x1="14.868" x2="14.868" y1="22.917" y2="41.509" gradientUnits="userSpaceOnUse" spreadMethod="reflect"><stop offset="0" stop-color="#1a6dff"/><stop offset="1" stop-color="#c822ff"/></linearGradient><path fill="url(#IgnU_pwi1cOyKgnWsfk95g)" d="M17.82,32.947c-0.097,0.07-0.199,0.123-0.302,0.158c-0.105,0.035-0.186,0.054-0.245,0.058 c-0.059,0.004-0.124,0.005-0.197,0.005h-4.384c-0.015,0-0.085,0-0.211,0c-0.01,0-0.05-0.002-0.12-0.008 c-0.071-0.006-0.125-0.017-0.165-0.034c-0.097-0.051-0.177-0.11-0.241-0.179l-0.526,2.946l0.219,0.051 c0.044-0.192,0.139-0.425,0.285-0.697c0.121-0.227,0.244-0.4,0.365-0.518c0.244-0.226,0.47-0.386,0.68-0.479 c0.209-0.093,0.46-0.14,0.752-0.14v6.055c0,0.243-0.01,0.424-0.029,0.542c-0.02,0.118-0.08,0.234-0.182,0.348 c-0.17,0.186-0.351,0.279-0.541,0.279c-0.044,0-0.077,0.002-0.102,0.008v0.322h4.004v-0.331c-0.156,0-0.285-0.021-0.387-0.064 c-0.102-0.042-0.196-0.126-0.281-0.25c-0.085-0.124-0.141-0.266-0.167-0.424c-0.026-0.158-0.04-0.337-0.04-0.534 c0-0.045,0-0.101,0-0.169l-0.007-5.783c0.351,0,0.659,0.075,0.924,0.225s0.512,0.384,0.741,0.7c0.205,0.283,0.349,0.594,0.431,0.933 l0.219-0.077L17.82,32.947z"/><linearGradient id="IgnU_pwi1cOyKgnWsfk95h" x1="22.216" x2="22.216" y1="22.917" y2="41.509" gradientUnits="userSpaceOnUse" spreadMethod="reflect"><stop offset="0" stop-color="#1a6dff"/><stop offset="1" stop-color="#c822ff"/></linearGradient><path fill="url(#IgnU_pwi1cOyKgnWsfk95h)" d="M22.662,33.853c0.087,0.017,0.154,0.03,0.199,0.041c0.122,0.039,0.205,0.091,0.25,0.156 c0.064,0.099,0.109,0.205,0.136,0.321c0.026,0.115,0.04,0.321,0.04,0.617v0.757h-2.194v-0.781c0-0.378,0.076-0.68,0.227-0.906 c0.054-0.077,0.128-0.13,0.22-0.161c0.092-0.03,0.169-0.046,0.227-0.046V33.53h-3.536v0.321c0.112,0.017,0.205,0.042,0.279,0.078 c0.074,0.036,0.14,0.099,0.197,0.19c0.059,0.091,0.095,0.18,0.11,0.267c0.015,0.088,0.023,0.222,0.023,0.403c0,0.022,0,0.06,0,0.115 l0.015,5.381c0,0.181-0.025,0.372-0.074,0.571c-0.049,0.2-0.097,0.325-0.146,0.374c-0.093,0.088-0.157,0.141-0.195,0.161 c-0.036,0.019-0.104,0.04-0.201,0.062v0.313h3.507v-0.321c-0.201,0-0.367-0.085-0.499-0.255c-0.069-0.093-0.111-0.184-0.129-0.27 c-0.017-0.088-0.026-0.208-0.026-0.361v-3.976h2.179v3.992c0,0.132-0.011,0.248-0.032,0.349c-0.022,0.101-0.062,0.193-0.121,0.275 c-0.122,0.164-0.286,0.246-0.491,0.246v0.321h3.559v-0.321c-0.186,0-0.332-0.06-0.44-0.181c-0.054-0.065-0.094-0.165-0.121-0.299 c-0.028-0.134-0.04-0.281-0.04-0.439l-0.015-5.589c0-0.181,0.011-0.337,0.032-0.468c0.023-0.132,0.068-0.252,0.136-0.362 s0.156-0.181,0.264-0.214c0.064-0.011,0.13-0.025,0.199-0.041v-0.32h-3.536v0.322H22.662z"/><linearGradient id="IgnU_pwi1cOyKgnWsfk95i" x1="28.376" x2="28.376" y1="22.917" y2="41.509" gradientUnits="userSpaceOnUse" spreadMethod="reflect"><stop offset="0" stop-color="#1a6dff"/><stop offset="1" stop-color="#c822ff"/></linearGradient><path fill="url(#IgnU_pwi1cOyKgnWsfk95i)" d="M26.589,33.853c0.137,0.022,0.242,0.048,0.315,0.078c0.074,0.03,0.13,0.076,0.169,0.135 c0.074,0.11,0.12,0.233,0.14,0.369c0.02,0.138,0.029,0.324,0.029,0.559v5.556c0,0.136-0.011,0.255-0.032,0.354 c-0.022,0.099-0.065,0.188-0.129,0.272c-0.132,0.181-0.296,0.272-0.491,0.272v0.321h3.559v-0.321c-0.092,0-0.176-0.021-0.25-0.062 c-0.074-0.041-0.137-0.092-0.191-0.152s-0.094-0.158-0.121-0.292c-0.027-0.134-0.04-0.281-0.04-0.439v-5.532 c0-0.203,0.009-0.368,0.026-0.497c0.017-0.129,0.06-0.245,0.129-0.349c0.049-0.077,0.1-0.133,0.154-0.169 c0.054-0.036,0.156-0.07,0.309-0.103v-0.32h-3.574L26.589,33.853z"/><linearGradient id="IgnU_pwi1cOyKgnWsfk95j" x1="34.062" x2="34.062" y1="22.917" y2="41.509" gradientUnits="userSpaceOnUse" spreadMethod="reflect"><stop offset="0" stop-color="#1a6dff"/><stop offset="1" stop-color="#c822ff"/></linearGradient><path fill="url(#IgnU_pwi1cOyKgnWsfk95j)" d="M37.151,41.144c-0.046-0.088-0.077-0.191-0.091-0.308c-0.015-0.118-0.022-0.221-0.022-0.308 v-5.474c0-0.153,0.011-0.322,0.033-0.506c0.022-0.184,0.077-0.338,0.165-0.465c0.074-0.104,0.154-0.17,0.243-0.197 c0.059-0.011,0.117-0.022,0.176-0.033v-0.321h-2.216v0.321c0.119,0.017,0.219,0.046,0.301,0.087 c0.081,0.041,0.153,0.107,0.211,0.198s0.096,0.174,0.111,0.251c0.015,0.077,0.022,0.19,0.022,0.337c0,0.022,0,0.054,0,0.099v1.859 l-1.475-2.073c-0.049-0.071-0.084-0.129-0.103-0.173c-0.044-0.093-0.066-0.179-0.066-0.255c0-0.054,0.018-0.109,0.051-0.161 c0.034-0.052,0.07-0.093,0.106-0.123c0.036-0.03,0.08-0.046,0.129-0.046v-0.321h-4.197v0.321c0.181,0.028,0.322,0.104,0.426,0.231 c0.049,0.06,0.083,0.17,0.103,0.328c0.02,0.159,0.029,0.326,0.029,0.501c0,0.071,0,0.14,0,0.205v5.038 c0,0.279-0.023,0.53-0.066,0.752c-0.044,0.222-0.117,0.368-0.22,0.439c-0.059,0.039-0.105,0.062-0.14,0.07 c-0.034,0.008-0.097,0.018-0.191,0.029v0.32h2.135v-0.321c-0.116-0.022-0.21-0.057-0.282-0.103c-0.073-0.047-0.129-0.113-0.17-0.202 c-0.041-0.088-0.07-0.18-0.087-0.275c-0.018-0.095-0.025-0.213-0.025-0.349l0.007-5.506l3.369,4.437 c0.195,0.257,0.327,0.46,0.395,0.609c0.102,0.214,0.154,0.441,0.154,0.682c0,0.362-0.12,0.587-0.36,0.674 c-0.064,0.022-0.127,0.033-0.191,0.033v0.32h2.216v-0.32c-0.103-0.011-0.196-0.042-0.282-0.094 C37.264,41.301,37.198,41.231,37.151,41.144z"/><linearGradient id="IgnU_pwi1cOyKgnWsfk95k" x1="48.717" x2="48.717" y1="22.917" y2="41.509" gradientUnits="userSpaceOnUse" spreadMethod="reflect"><stop offset="0" stop-color="#1a6dff"/><stop offset="1" stop-color="#c822ff"/></linearGradient><path fill="url(#IgnU_pwi1cOyKgnWsfk95k)" d="M50.65,36.881l-1.761-0.634c-0.307-0.11-0.536-0.252-0.682-0.427 c-0.118-0.142-0.176-0.304-0.176-0.485c0-0.121,0.018-0.235,0.051-0.345c0.02-0.066,0.051-0.142,0.095-0.231 c0.069-0.142,0.174-0.249,0.315-0.316c0.141-0.069,0.309-0.103,0.499-0.103c0.22,0,0.45,0.043,0.69,0.132 c0.24,0.088,0.452,0.203,0.639,0.345c0.23,0.175,0.442,0.468,0.639,0.88c0.083,0.17,0.132,0.296,0.146,0.378l0.264-0.091 l-0.25-2.674c-0.049,0.028-0.118,0.071-0.205,0.132c-0.118,0.066-0.23,0.115-0.337,0.149c-0.015,0.005-0.041,0.008-0.081,0.008 c-0.332-0.071-0.655-0.142-0.969-0.214c-0.314-0.071-0.597-0.106-0.851-0.106c-0.195,0-0.381,0.019-0.557,0.058 c-0.724,0.164-1.309,0.468-1.754,0.913c-0.499,0.5-0.749,1.108-0.749,1.827c0,0.522,0.141,0.966,0.425,1.333 c0.259,0.334,0.621,0.587,1.086,0.757l1.937,0.716c0.176,0.065,0.316,0.174,0.422,0.325c0.105,0.151,0.157,0.327,0.157,0.531 c0,0.088-0.005,0.156-0.015,0.205c-0.059,0.33-0.22,0.584-0.484,0.765c-0.264,0.181-0.582,0.272-0.954,0.272 c-0.337,0-0.684-0.082-1.039-0.246c-0.355-0.164-0.661-0.401-0.921-0.708c-0.181-0.214-0.34-0.505-0.477-0.872 c-0.107-0.285-0.169-0.51-0.184-0.675l-0.264,0.033l0.286,3.406c0.054-0.043,0.109-0.087,0.165-0.128 c0.056-0.041,0.105-0.065,0.147-0.074c0.041-0.008,0.094-0.012,0.157-0.012c0.465,0.065,0.92,0.132,1.365,0.197 C47.871,41.966,48.273,42,48.63,42c0.445,0,0.912-0.088,1.401-0.263c0.596-0.214,1.076-0.516,1.437-0.906 c0.44-0.477,0.66-1.05,0.66-1.719c0-0.559-0.131-1.029-0.392-1.407C51.479,37.325,51.115,37.051,50.65,36.881z"/><linearGradient id="IgnU_pwi1cOyKgnWsfk95l" x1="41.423" x2="41.423" y1="22.917" y2="41.509" gradientUnits="userSpaceOnUse" spreadMethod="reflect"><stop offset="0" stop-color="#1a6dff"/><stop offset="1" stop-color="#c822ff"/></linearGradient><path fill="url(#IgnU_pwi1cOyKgnWsfk95l)" d="M44.809,41.121c-0.049-0.101-0.079-0.199-0.087-0.295c0-0.106,0-0.213,0-0.32v-2.505 c0-0.174,0.011-0.316,0.033-0.429c0.022-0.112,0.071-0.216,0.15-0.312c0.146-0.191,0.319-0.286,0.519-0.286v-0.286h-3.5V37 c0.024,0,0.064,0,0.116,0c0.141,0,0.267,0.062,0.38,0.185c0.059,0.068,0.099,0.138,0.121,0.21c0.023,0.072,0.033,0.204,0.033,0.395 v2.008c0,0.331-0.064,0.594-0.19,0.79c-0.151,0.229-0.385,0.344-0.701,0.344c-0.711,0-1.286-0.409-1.724-1.229 c-0.375-0.697-0.562-1.468-0.562-2.316c0-0.068,0.001-0.123,0.004-0.168c0.002-0.045,0.006-0.093,0.011-0.144 c0.068-0.826,0.256-1.5,0.562-2.021c0.37-0.629,0.874-0.943,1.512-0.943c0.409,0,0.874,0.138,1.395,0.414 c0.209,0.112,0.419,0.313,0.629,0.6c0.272,0.372,0.45,0.693,0.534,0.963l0.182-0.11l-0.299-2.897 c-0.088,0.078-0.173,0.157-0.256,0.235c-0.107,0.068-0.246,0.101-0.416,0.101c-0.151,0-0.316-0.023-0.496-0.068 c-0.35-0.085-0.662-0.145-0.935-0.181c-0.272-0.036-0.565-0.054-0.876-0.054c-0.575,0-1.102,0.083-1.585,0.249 c-0.482,0.165-0.906,0.429-1.271,0.787c-0.272,0.274-0.494,0.581-0.666,0.92v4.256c0.12,0.272,0.261,0.528,0.425,0.769 c0.447,0.657,0.996,1.112,1.644,1.364c0.521,0.202,1.22,0.303,2.096,0.303h3.652v-0.32c-0.116-0.034-0.206-0.071-0.266-0.113 C44.911,41.294,44.856,41.222,44.809,41.121z"/><linearGradient id="IgnU_pwi1cOyKgnWsfk95m" x1="6.5" x2="6.5" y1="35" y2="36" gradientUnits="userSpaceOnUse" spreadMethod="reflect"><stop offset="0" stop-color="#6dc7ff"/><stop offset="1" stop-color="#e6abff"/></linearGradient><path fill="url(#IgnU_pwi1cOyKgnWsfk95m)" d="M2 35H11V36H2z"/><linearGradient id="IgnU_pwi1cOyKgnWsfk95n" x1="57" x2="57" y1="35" y2="36" gradientUnits="userSpaceOnUse" spreadMethod="reflect"><stop offset="0" stop-color="#6dc7ff"/><stop offset="1" stop-color="#e6abff"/></linearGradient><path fill="url(#IgnU_pwi1cOyKgnWsfk95n)" d="M52 35H62V36H52z"/><linearGradient id="IgnU_pwi1cOyKgnWsfk95o" x1="31.5" x2="31.5" y1="21" y2="22" gradientUnits="userSpaceOnUse" spreadMethod="reflect"><stop offset="0" stop-color="#6dc7ff"/><stop offset="1" stop-color="#e6abff"/></linearGradient><path fill="url(#IgnU_pwi1cOyKgnWsfk95o)" d="M2 21H61V22H2z"/></svg>