<svg xmlns="http://www.w3.org/2000/svg"  viewBox="0 0 48 48" width="48px" height="48px" clip-rule="evenodd" baseProfile="basic"><path fill-rule="evenodd" d="M6.001,40.995l-0.001-2.001h36.001v2	c0,1.657-1.344,3-3,3h-30C7.343,43.994,6.001,42.651,6.001,40.995z" clip-rule="evenodd"/><path fill="#fff" fill-rule="evenodd" d="M7.001,38.994	L6.999,6.995h34.001v31.999c0,1.104-0.896,2-2,2h-30C7.897,40.994,7.001,40.098,7.001,38.994z" clip-rule="evenodd"/><path fill-rule="evenodd" d="M5.998,38.997V6.998	c0-0.551,0.448-1,1-1h34.001c0.551,0,1,0.449,0.999,1.001v31.999c0,1.656-1.344,2.999-3,2.999h-30	C7.341,41.997,5.998,40.654,5.998,38.997z M39.998,38.997V7.998h-32v30.999c0,0.552,0.448,1,1,1h30	C39.549,39.997,39.998,39.549,39.998,38.997z" clip-rule="evenodd"/><path fill-rule="evenodd" d="M19.042,19.983	c-0.1-0.543,0.259-1.065,0.801-1.165l10.971-2.028c0.543-0.1,1.065,0.259,1.165,0.801c0.1,0.543-0.259,1.065-0.801,1.165	l-10.971,2.028C19.665,20.885,19.142,20.526,19.042,19.983z" clip-rule="evenodd"/><path fill-rule="evenodd" d="M13.002,31.314	c0.088-1.709,1.449-3.311,3.323-3.311h1.413c0.711,0,1.288-0.573,1.288-1.317c0-1.317,2-1.317,2,0v3.836	c0,2.421-1.809,4.477-4.325,4.477h-0.385C14.342,34.999,12.905,33.153,13.002,31.314z M19.026,30.522v-0.779l-0.299,0.111	c-0.312,0.097-0.644,0.149-0.989,0.149h-1.413c-0.652,0-1.285,0.625-1.327,1.416c-0.043,0.823,0.636,1.58,1.317,1.58h0.385	C18.019,32.999,19.026,31.95,19.026,30.522z" clip-rule="evenodd"/><path fill-rule="evenodd" d="M23.939,29.285	c0.092-1.769,1.643-3.311,3.445-3.311h1.295c0.725,0,1.317-0.589,1.317-1.32c0-0.551,0.448-1,1-1c0.068,0,0.136,0.008,0.2,0.021	c0.455,0.093,0.8,0.497,0.8,0.979v3.839c0,2.433-1.853,4.476-4.357,4.476h-0.387C25.281,32.969,23.843,31.122,23.939,29.285z M29.997,28.493l-0.013-0.785c-0.409,0.175-0.847,0.267-1.304,0.267h-1.295c-0.705,0-1.411,0.676-1.449,1.413	c-0.043,0.824,0.637,1.581,1.317,1.581h0.387C28.969,30.969,29.997,29.907,29.997,28.493z" clip-rule="evenodd"/><path fill-rule="evenodd" d="M19.026,26.686V16.499	c0-0.856,0.609-1.581,1.444-1.741l9.885-1.825c0.849-0.156,1.641,0.493,1.641,1.363v10.359c0,0.552-0.449,1-1,1	c-0.552,0-1-0.448-1-1v-9.62l-8.971,1.657v9.995c0,0.552-0.449,1-1,1C19.474,27.686,19.026,27.238,19.026,26.686z" clip-rule="evenodd"/></svg>