<svg xmlns="http://www.w3.org/2000/svg" xmlns:xlink="http://www.w3.org/1999/xlink" viewBox="0,0,256,256" width="24px" height="24px"><g fill="#ffffff" fill-rule="nonzero" stroke="none" stroke-width="1" stroke-linecap="butt" stroke-linejoin="miter" stroke-miterlimit="10" stroke-dasharray="" stroke-dashoffset="0" font-family="none" font-weight="none" font-size="none" text-anchor="none" style="mix-blend-mode: normal"><g transform="scale(10.66667,10.66667)"><path d="M4.85,0l0.906,0.467l2.443,2.552v1.812l-2.855,-2.91zM8.638,3.458l2.991,2.882l-1.043,0.879l-1.948,-2.004zM3.889,2.415l1.29,0.659l2.114,1.839l0.11,1.812l-2.498,-1.867zM7.65,5.133l0.164,1.839l1.62,1.372l0.823,-0.933zM3.423,5.16l1.125,0.137l2.251,1.702l0.302,1.729l-2.69,-2.003zM7.293,7.329l2.003,1.399l-0.054,1.455l-1.675,-1.098zM9.763,8.646l2.415,-2.251l-0.164,1.867l-2.388,2.525zM12.59,5.984l2.635,-2.498l-0.055,1.921l-2.662,2.278zM15.582,2.992v1.839l2.47,-2.114l0.906,-2.525l-1.263,0.631zM9.571,11.363l0.027,1.62l2.745,-2.69l0.165,-1.839zM12.974,8.042l-0.219,1.647l3.074,-2.553l0.192,-1.839zM16.405,4.913l-0.219,1.922l2.662,-1.812l1.235,-2.608l-1.509,0.824zM16.872,6.999l1.894,-1.345l1.647,-0.411l-1.675,2.223l-2.113,1.345zM13.112,10.101l3.211,-2.718l-0.192,1.647l-3.294,2.663zM3.615,7.329l1.207,0.439l1.812,1.619l0.439,1.812l-2.415,-1.922zM7.018,9.442l0.439,1.729l1.62,1.071v-1.537zM9.489,13.559l3.019,-2.854l-0.247,1.454l-2.965,3.019zM7.293,12.104l1.701,0.742l-0.027,1.537l-1.263,-0.577zM6.661,11.748l0.522,1.839l-2.69,-1.455l-1.07,-1.757h1.29zM7.32,14.41l1.62,0.741l-0.055,1.29l-0.961,-0.439zM3.917,12.983l0.549,-0.028l2.25,1.098l0.659,1.757l-2.47,-1.318zM9.242,15.865l3.65,-3.596l-0.357,1.51l-3.403,3.101zM13.715,11.528l-0.603,1.866l2.854,-1.784l0.686,-2.168zM17.146,9.167l1.537,-1.125l1.73,-0.549l-1.345,2.196l-2.278,1.4zM17.064,11.775l2.498,-1.263l1.015,-0.027l-1.756,2.141l-2.361,0.988zM16.488,11.967l-0.549,1.922l-2.882,1.646l0.494,-1.674zM9.132,17.264l3.787,-2.964l-0.549,1.674l-3.348,2.114zM8.857,18.829l3.843,-2.553l-0.714,1.565l-3.293,1.702zM13.487,15.801l2.928,-1.336l-0.989,1.885l-2.726,1.061zM16.964,14.191l-0.769,1.72l1.903,-0.714l1.775,-2.086l-1.025,0.128zM16.506,16.313l-0.695,1.61l1.683,-0.658l2.086,-1.775l-1.299,0.109zM15.847,16.587l-0.951,1.702l-2.928,1.208l0.878,-1.629zM12.188,18.271l-0.915,1.391l-3.257,1.518l0.42,-1.043zM4.319,15.307l1.3,0.128l1.463,0.713l0.568,1.629l-2.141,-0.915zM7.961,16.679l0.732,0.311v1.116l-0.348,-0.164zM8.601,18.637l-0.439,1.08l-1.555,-0.549l-1.007,-1.354l0.988,-0.074zM6.46,20.009l0.824,-0.018l0.75,0.238l-0.293,0.86l-0.896,-0.476zM5.088,24l3.074,-2.525l3.458,-1.611l-1.207,1.684zM12.371,19.572l-0.988,1.299l3.092,-0.97l0.823,-1.464zM15.92,18.346l-0.768,1.372l1.94,-0.494l1.098,-1.354l-1.044,-0.018zM14.603,20.56l1.208,-0.366l1.299,-0.037l-1.263,1.281l-2.25,0.366zM14.127,20.505l-0.915,1.208l-1.958,-0.165l1.537,-0.897zM14.091,22.024l1.958,-0.165l1.72,1.519l-2.397,-0.513z"></path></g></g></svg>